<svg width="96" height="96" viewBox="0 0 96 96" xmlns="http://www.w3.org/2000/svg"><title>Personal 24 Hour Account Support</title><g fill="none" fill-rule="evenodd"><path d="M64.47 8v46.857c12.918 0 23.428-10.51 23.428-23.428C87.898 18.51 77.388 8 64.47 8zM44.224 43.225L42 54l10.674-2.326c3.572 2.087 7.617 3.183 11.796 3.183V8C51.55 8 41.04 18.51 41.04 31.43c0 4.177 1.097 8.222 3.184 11.795z" fill="#F6A43B"/><path d="M59.494 31.06c.28-.383.42-.77.42-1.162 0-.392-.15-.726-.448-1-.3-.276-.677-.414-1.134-.414-.803 0-1.47.41-2.002 1.232l-1.33-.77c.43-.644.903-1.13 1.42-1.456.52-.327 1.186-.49 2.003-.49.817 0 1.533.26 2.15.777.615.518.923 1.225.923 2.12 0 .505-.13.986-.392 1.443-.26.457-.742 1.045-1.442 1.764l-2.296 2.338h4.438v1.582h-6.692v-1.4l2.968-2.982c.663-.672 1.134-1.2 1.414-1.582zm9.87 2.002V31.27h1.568v1.792h1.176v1.498h-1.176v2.464h-1.568V34.56h-4.2v-1.456l3.598-5.866h1.806l-3.542 5.824h2.338z" fill="#FFF"/><g><path d="M31.26 47.326l5.506-5.507-18.33-18.33-2.305 2.12c-.074.07-1.85 1.71-3.687 3.993-2.672 3.32-4.15 6.347-4.394 8.994-.698 7.563 6.32 19.918 17.877 31.475l14.04-14.04-8.708-8.706z" fill="#37B5E9"/><path d="M48.673 64.74l-8.707-8.708-14.04 14.04c5.203 5.203 10.75 9.638 16.04 12.827 3.86 2.326 9.48 5.1 14.33 5.1.376 0 .748-.017 1.106-.05 2.647-.244 5.673-1.722 8.994-4.394 2.284-1.837 3.924-3.613 3.993-3.688l2.12-2.305-18.33-18.33-5.507 5.507z" fill="#5FC3ED"/></g><path d="M0 0h96v96H0z"/></g></svg>