<svg width="96" height="96" viewBox="0 0 96 96" xmlns="http://www.w3.org/2000/svg"><title>Cheaper</title><g fill="none" fill-rule="evenodd"><path d="M0 0h96v96H0z"/><path d="M15.56 40.874c-1.975 1.972-1.975 5.18 0 7.154 1.038 1.037 2.42 1.528 3.783 1.474C20.61 39.976 27.753 32 37.556 28.36c.25 1.416.745 2.748 1.44 3.95H49.52v46.54c-2.807 0-5.523-.332-8.102-.948v4.994H31.29V73.59c-6.5-4.23-10.977-10.664-11.95-18.02-.067 0-.134.004-.2.004-2.853 0-5.706-1.085-7.877-3.254-4.344-4.34-4.344-11.4 0-15.74l4.296 4.294z" fill="#37B5E9"/><path d="M49.52 32.31h10.52c1.036-1.786 1.63-3.858 1.63-6.07 0-.905-.1-1.785-.29-2.633 4.653-3.436 10.417-3.438 10.417-3.438v14.493c2.267 2.117 4.137 4.556 5.506 7.23L88 46.474v12.142l-10.697 4.58c-2.117 4.135-5.428 7.71-9.556 10.394v9.306H57.62v-4.994c-2.58.616-5.295.947-8.1.947V32.31zm17.214 16.187c-1.678 0-3.038-1.36-3.038-3.035 0-1.676 1.36-3.035 3.038-3.035 1.678 0 3.038 1.36 3.038 3.035 0 1.676-1.36 3.035-3.038 3.035z" fill="#5FC3ED"/><g><path d="M49.52 32.31H38.996c-.697-1.202-1.192-2.534-1.442-3.95-.12-.69-.188-1.397-.188-2.12 0-6.706 5.44-12.14 12.152-12.14v18.21z" fill="#F6A43B"/><path d="M60.04 32.31H49.52V14.1c5.805 0 10.658 4.068 11.86 9.507.19.848.29 1.728.29 2.632 0 2.212-.594 4.284-1.63 6.07z" fill="#F8BF76"/></g></g></svg>