<svg width="96" height="96" viewBox="0 0 96 96" xmlns="http://www.w3.org/2000/svg" xmlns:xlink="http://www.w3.org/1999/xlink"><title>Custom Solutions</title><defs><path d="M0 26.877c0 6.07 1.998 11.804 5.78 16.58C8.584 46.994 14.784 56.142 17.057 60H37.12c2.344-3.976 8.255-12.952 11.1-16.543C52.005 38.683 54 32.95 54 26.877 54 12.057 41.89 0 27 0 12.112 0 0 12.057 0 26.877z" id="a"/></defs><g fill="none" fill-rule="evenodd"><g opacity=".5" transform="translate(21 8)"><mask id="b" fill="#fff"><use xlink:href="#a"/></mask><use fill="#5FC3ED" xlink:href="#a"/><path fill="#37B5E9" mask="url(#b)" d="M-21-8h48v96h-48z"/></g><g transform="translate(34 62)"><circle fill="#FCE3C4" cx="14" cy="17" r="9"/><path fill="#F6A43B" d="M0 0h28v6H0z"/><path fill="#F7B662" d="M2 6h24v6H2z"/><path fill="#F8BF76" d="M4 12h20v6H4"/></g><path d="M0 0h96v96H0z"/></g></svg>