<svg width="96" height="96" viewBox="0 0 96 96" xmlns="http://www.w3.org/2000/svg"><title>Faster</title><g fill="none" fill-rule="evenodd"><path d="M63.1 27.23c0-5.61-4.558-10.175-10.16-10.175H49.71v6.475h3.233c2.037 0 3.694 1.66 3.694 3.7s-1.657 3.7-3.693 3.7H8v6.474h44.94c5.602 0 10.16-4.564 10.16-10.175z" fill="#37B5E9"/><path d="M65.39 58.596H8v6.475h57.39c2.038 0 3.695 1.66 3.695 3.7s-1.657 3.7-3.694 3.7h-3.23v6.475h3.23c5.602 0 10.16-4.564 10.16-10.174 0-5.61-4.557-10.174-10.16-10.174z" fill="#87D2F1"/><path fill="#73CBEF" d="M36.46 44.762H88v6.475H36.46z"/><path fill="#5FC3ED" d="M8 44.762h20.694v6.475H8z"/><path d="M0 0h96v96H0z"/></g></svg>