<svg width="96" height="96" viewBox="0 0 96 96" xmlns="http://www.w3.org/2000/svg"><title>Data</title><g fill="none" fill-rule="evenodd"><path fill="#87D2F1" d="M31.158 69.176h33.684v8.47H31.158z"/><path fill="#AFE1F6" d="M31.158 77.647h-6.316V84h46.316v-6.353h-6.316"/><path fill="#37B5E9" d="M14.316 62.824v-44.47H48V12H8v57.176h40v-6.352"/><path fill="#5FC3ED" d="M48 12v6.353h33.684v44.472H48v6.352h40V12"/><path fill="#F6A43B" d="M27 35h6v20h-6z"/><path fill="#F9C889" d="M49 40h6v15h-6z"/><path fill="#F8BF76" d="M43 30h6v25h-6z"/><path fill="#FBDAB0" d="M64 22h6v33h-6z"/><path fill="#FAD19D" d="M58 25h6v30h-6z"/><path fill="#F7B662" d="M33 35h6v20h-6z"/><g transform="rotate(-45 100.355 -29.512)"><path fill="#DC9600" d="M9.778 20.667h3.056V31H9.778z"/><ellipse stroke="#F6A43B" stroke-width="2.4" fill-opacity=".5" fill="#F8BF76" cx="11" cy="10.941" rx="11" ry="10.941"/></g><path d="M0 0h96v96H0z"/></g></svg>