<?xml version="1.0" encoding="UTF-8" standalone="no"?>
<svg width="96px" height="96px" viewBox="0 0 96 96" version="1.1" xmlns="http://www.w3.org/2000/svg" xmlns:xlink="http://www.w3.org/1999/xlink">
    <!-- Generator: Sketch 3.8.3 (29802) - http://www.bohemiancoding.com/sketch -->
    <title>Detailed Feedback</title>
    <desc>Created with Sketch.</desc>
    <defs>
        <polygon id="path-1" points="63.802 12.5000816 52.3176667 0 6.75015599e-14 0 6.75015599e-14 80 63.8021667 80 63.8021667 12.5000816"></polygon>
    </defs>
    <g id="Page-1" stroke="none" stroke-width="1" fill="none" fill-rule="evenodd">
        <g id="Detailed-Feedback">
            <g id="analytics-(2)" transform="translate(16.000000, 8.000000)">
                <g id="Capa_1">
                    <g id="Black_3_">
                        <g id="Rectangle-94">
                            <mask id="mask-2" fill="white">
                                <use xlink:href="#path-1"></use>
                            </mask>
                            <use id="Mask" fill="#5FC3ED" opacity="0.5" xlink:href="#path-1"></use>
                            <rect fill="#37B5E9" opacity="0.5" mask="url(#mask-2)" x="-16" y="-8" width="48" height="96"></rect>
                            <rect id="Rectangle-95" fill="#37B5E9" mask="url(#mask-2)" x="51" y="0" width="13" height="13"></rect>
                        </g>
                        <polygon id="Shape" fill="#FFFFFF" points="48.124 62.877551 46.2993333 55.7500408 43.7956667 55.7500408 41.8918333 62.76 40.3248333 55.7500408 38.837 55.7500408 38.171 55.7500408 36.7188333 55.7500408 35.1186667 62.877551 33.294 55.7500408 30.7928333 55.7500408 28.889 62.76 27.3195 55.7500408 25.829 55.7500408 25.1655 55.7500408 23.7133333 55.7500408 22.1131667 62.877551 20.2885 55.7500408 17.785 55.7500408 15.881 62.76 14.3115 55.7500408 12.1601667 55.7500408 14.6458333 65.9549388 16.9273333 65.9549388 18.9945 58.3275102 21.0695 65.9549388 23.3 65.9549388 25.4948333 57.0999184 27.6513333 65.9549388 29.9328333 65.9549388 32 58.3275102 34.0748333 65.9549388 36.3053333 65.9549388 38.5001667 57.1049796 40.6566667 65.9549388 42.9381667 65.9549388 45.0055 58.3275102 47.0803333 65.9549388 49.3108333 65.9549388 51.8398333 55.7500408 49.7241667 55.7500408"></polygon>
                        <path d="M12.1601667,33.1699592 L18.5456856,33.1699592 L18.5456856,48.8924082 L12.1601667,48.8924082 L12.1601667,33.1699592 Z M23.2550188,13.8924082 L29.6405377,13.8924082 L29.6405377,48.8924082 L23.2550188,48.8924082 L23.2550188,13.8924082 Z M34.3563347,23.1699592 L40.7418536,23.1699592 L40.7418536,48.8924082 L34.3563347,48.8924082 L34.3563347,23.1699592 Z M45.4543144,37.7049796 L51.8398333,37.7049796 L51.8398333,48.8924082 L45.4543144,48.8924082 L45.4543144,37.7049796 Z" id="Combined-Shape" fill="#FFFFFF"></path>
                    </g>
                </g>
            </g>
        </g>
    </g>
</svg>