<?xml version="1.0" encoding="UTF-8" standalone="no"?>
<svg width="96px" height="96px" viewBox="0 0 96 96" version="1.1" xmlns="http://www.w3.org/2000/svg" xmlns:xlink="http://www.w3.org/1999/xlink">
    <!-- Generator: Sketch 3.8.3 (29802) - http://www.bohemiancoding.com/sketch -->
    <title>Get Started</title>
    <desc>Created with Sketch.</desc>
    <defs>
        <path d="M61.5588723,7.6 L45.4766169,7.6 C43.8606965,3.192 39.628524,0 34.6268657,0 C29.6252073,0 25.3930348,3.192 23.7771144,7.6 L7.69485904,7.6 C3.46268657,7.6 0,11.02 0,15.2 L0,68.4 C0,72.58 3.46268657,76 7.69485904,76 L61.5588723,76 C65.7910448,76 69.2537313,72.58 69.2537313,68.4 L69.2537313,15.2 C69.2537313,11.02 65.7910448,7.6 61.5588723,7.6 L61.5588723,7.6 Z M34.6268657,7.6 C36.7429519,7.6 38.4742952,9.31 38.4742952,11.4 C38.4742952,13.49 36.7429519,15.2 34.6268657,15.2 C32.5107794,15.2 30.7794362,13.49 30.7794362,11.4 C30.7794362,9.31 32.5107794,7.6 34.6268657,7.6 L34.6268657,7.6 Z" id="path-1"></path>
    </defs>
    <g id="Page-1" stroke="none" stroke-width="1" fill="none" fill-rule="evenodd">
        <g id="Get-Started">
            <g id="Group" transform="translate(14.000000, 10.000000)">
                <g id="bg">
                    <mask id="mask-2" fill="white">
                        <use xlink:href="#path-1"></use>
                    </mask>
                    <use id="Mask" fill="#37B5E9" xlink:href="#path-1"></use>
                    <rect id="Rectangle-75" fill="#5FC3ED" mask="url(#mask-2)" x="34.6268657" y="-7.6" width="46.1691542" height="91.2"></rect>
                </g>
                <path d="M10.5804312,24.7 L24.0464345,24.7 L24.0464345,38 L10.5804312,38 L10.5804312,24.7 Z M10.5804312,41.7 L58.5804312,41.7 L58.5804312,45.7 L10.5804312,45.7 L10.5804312,41.7 Z M27.5804312,26.7 L58.542458,26.7 L58.542458,30.5 L27.5804312,30.5 L27.5804312,26.7 Z M10.5804312,48.7 L58.5804312,48.7 L58.5804312,52.7 L10.5804312,52.7 L10.5804312,48.7 Z M27.5804312,33.7 L58.542458,33.7 L58.542458,37.5 L27.5804312,37.5 L27.5804312,33.7 Z M10.5804312,56.7 L58.5804312,56.7 L58.5804312,60.7 L10.5804312,60.7 L10.5804312,56.7 Z M10.5804312,64.7 L58.6733002,64.7 L58.6733002,68.5 L10.5804312,68.5 L10.5804312,64.7 Z" id="Combined-Shape" fill="#FFFFFF"></path>
            </g>
        </g>
    </g>
</svg>