<svg width="96" height="96" viewBox="0 0 96 96" xmlns="http://www.w3.org/2000/svg" xmlns:xlink="http://www.w3.org/1999/xlink"><title>Detailed Feedback</title><defs><path id="a" d="M63.802 12.5L52.318 0H0v80h63.802V12.5z"/></defs><g fill="none" fill-rule="evenodd"><g transform="translate(16 8)"><mask id="b" fill="#fff"><use xlink:href="#a"/></mask><use fill="#5FC3ED" opacity=".5" xlink:href="#a"/><path fill="#37B5E9" opacity=".5" mask="url(#b)" d="M-16-8h48v96h-48z"/><path fill="#37B5E9" mask="url(#b)" d="M51 0h13v13H51z"/></g><path fill="#FFF" d="M64.124 70.878L62.3 63.75h-2.504l-1.904 7.01-1.567-7.01H52.72l-1.6 7.128-1.826-7.128h-2.5l-1.905 7.01-1.57-7.01h-3.607l-1.6 7.128-1.825-7.128h-2.503l-1.904 7.01-1.57-7.01h-2.15l2.486 10.205h2.28l2.068-7.627 2.075 7.627h2.23l2.195-8.855 2.156 8.855h2.283L48 66.328l2.075 7.627h2.23l2.195-8.85 2.157 8.85h2.28l2.068-7.627 2.075 7.627h2.23l2.53-10.205h-2.116M28.16 41.17h6.386v15.722H28.16V41.17zm11.095-19.278h6.386v35h-6.385v-35zm11.1 9.278h6.387v25.722h-6.386V31.17zm11.1 14.535h6.385v11.187h-6.386V45.705z"/></g></svg>