<svg width="96" height="96" viewBox="0 0 96 96" xmlns="http://www.w3.org/2000/svg" xmlns:xlink="http://www.w3.org/1999/xlink"><title>Get Started</title><defs><path d="M61.56 7.6H45.476C43.86 3.192 39.63 0 34.627 0s-9.234 3.192-10.85 7.6H7.695C3.463 7.6 0 11.02 0 15.2v53.2C0 72.58 3.463 76 7.695 76H61.56c4.23 0 7.694-3.42 7.694-7.6V15.2c0-4.18-3.463-7.6-7.695-7.6zm-26.933 0c2.116 0 3.847 1.71 3.847 3.8s-1.73 3.8-3.847 3.8c-2.116 0-3.848-1.71-3.848-3.8s1.73-3.8 3.847-3.8z" id="a"/></defs><g fill="none" fill-rule="evenodd"><g transform="translate(14 10)"><mask id="b" fill="#fff"><use xlink:href="#a"/></mask><use fill="#37B5E9" xlink:href="#a"/><path fill="#5FC3ED" mask="url(#b)" d="M34.627-7.6h46.17v91.2h-46.17z"/></g><path d="M24.58 34.7h13.466V48H24.58V34.7zm0 17h48v4h-48v-4zm17-15h30.962v3.8H41.58v-3.8zm-17 22h48v4h-48v-4zm17-15h30.962v3.8H41.58v-3.8zm-17 23h48v4h-48v-4zm0 8h48.093v3.8H24.58v-3.8z" fill="#FFF"/></g></svg>