<?xml version="1.0" encoding="UTF-8" standalone="no"?>
<svg width="96px" height="96px" viewBox="0 0 96 96" version="1.1" xmlns="http://www.w3.org/2000/svg" xmlns:xlink="http://www.w3.org/1999/xlink">
    <!-- Generator: Sketch 3.8.3 (29802) - http://www.bohemiancoding.com/sketch -->
    <title>Personal 24 Hour Account Support</title>
    <desc>Created with Sketch.</desc>
    <defs></defs>
    <g id="Page-1" stroke="none" stroke-width="1" fill="none" fill-rule="evenodd">
        <g id="Personal-24-Hour-Account-Support">
            <g id="ic_support">
                <g>
                    <g id="support_call" transform="translate(8.000000, 8.000000)">
                        <g id="speech_bubble" transform="translate(33.000000, 0.000000)">
                            <path d="M23.4697143,0 L23.4697143,46.8571429 C36.3882449,46.8571429 46.8982857,36.347102 46.8982857,23.4285714 C46.8982857,10.5100408 36.3882449,0 23.4697143,0 Z M3.2244898,35.2248163 L0.999999976,46 L11.6737959,43.6737959 C15.2460408,45.7614694 19.2909388,46.8571429 23.4697143,46.8571429 L23.4697143,0 C10.5511837,0 0.0411428571,10.5100408 0.0411428571,23.4285714 C0.0411428571,27.6073469 1.13697959,31.6520816 3.2244898,35.2248163 Z" id="Combined-Shape" fill="#F6A43B"></path>
                            <path d="M18.494,23.06 C18.7740014,22.6773314 18.914,22.290002 18.914,21.898 C18.914,21.505998 18.7646682,21.1723347 18.466,20.897 C18.1673318,20.6216653 17.7893356,20.484 17.332,20.484 C16.5293293,20.484 15.8620027,20.8946626 15.33,21.716 L14,20.946 C14.4293355,20.3019968 14.9029974,19.8166683 15.421,19.49 C15.9390026,19.1633317 16.6063292,19 17.423,19 C18.2396707,19 18.9559969,19.2589974 19.572,19.777 C20.1880031,20.2950026 20.496,21.0019955 20.496,21.898 C20.496,22.4020025 20.3653346,22.8826644 20.104,23.34 C19.8426654,23.7973356 19.3620035,24.3853297 18.662,25.104 L16.366,27.442 L20.804,27.442 L20.804,29.024 L14.112,29.024 L14.112,27.624 L17.08,24.642 C17.74267,23.9699966 18.2139986,23.4426686 18.494,23.06 L18.494,23.06 Z M28.3639999,25.062 L28.3639999,23.27 L29.9319999,23.27 L29.9319999,25.062 L31.1079999,25.062 L31.1079999,26.56 L29.9319999,26.56 L29.9319999,29.024 L28.3639999,29.024 L28.3639999,26.56 L24.1639999,26.56 L24.1639999,25.104 L27.7619999,19.238 L29.5679999,19.238 L26.0259999,25.062 L28.3639999,25.062 Z" id="24" fill="#FFFFFF"></path>
                        </g>
                        <g id="phone" transform="translate(0.000000, 15.000000)">
                            <path d="M23.2592653,24.325551 L28.765551,18.8192653 L10.4357551,0.489469388 L8.13077551,2.60995918 C8.056,2.67869388 6.28016327,4.31918367 4.44310204,6.60277551 C1.77110204,9.92391837 0.292571429,12.9498776 0.0486530612,15.596898 C-0.648163265,23.16 6.36930612,35.5149388 17.9266939,47.0724898 L31.9665306,33.0324898 L23.2592653,24.325551 L23.2592653,24.325551 Z" id="Shape" fill="#37B5E9"></path>
                            <path d="M40.6734694,41.7395918 L31.9663673,33.0324898 L17.9265306,47.0724898 C23.1291429,52.2749388 28.6749388,56.7102041 33.9645714,59.8987755 C37.8253061,62.2259592 43.4453878,65 48.2955102,65 C48.6721633,65 49.0444082,64.9831837 49.4021224,64.9503673 C52.0489796,64.7062857 55.0749388,63.2277551 58.3962449,60.5557551 C60.6796735,58.7186939 62.3201633,56.9428571 62.388898,56.8680816 L64.5093878,54.563102 L46.1795918,36.2333061 L40.6734694,41.7395918 L40.6734694,41.7395918 Z" id="Shape" fill="#5FC3ED"></path>
                        </g>
                    </g>
                    <rect id="bounds" x="0" y="0" width="96" height="96"></rect>
                </g>
            </g>
        </g>
    </g>
</svg>