<?xml version="1.0" encoding="UTF-8" standalone="no"?>
<svg width="96px" height="96px" viewBox="0 0 96 96" version="1.1" xmlns="http://www.w3.org/2000/svg" xmlns:xlink="http://www.w3.org/1999/xlink">
    <!-- Generator: Sketch 3.8.3 (29802) - http://www.bohemiancoding.com/sketch -->
    <title>Custom Solutions</title>
    <desc>Created with Sketch.</desc>
    <defs>
        <path d="M0,26.8765992 C0,32.9476923 1.99818628,38.6811336 5.78110661,43.4555466 C8.58331802,46.9946559 14.783086,56.1425101 17.0555715,60 L37.1209496,60 C39.4637181,56.0242915 45.3747074,47.0476113 48.2210084,43.4568421 C52.0042541,38.682915 54,32.9496356 54,26.8767611 C53.9995119,12.0565182 41.8888631,0 26.9992679,0 C12.1129265,0 0,12.0566802 0,26.8765992 Z" id="path-1"></path>
    </defs>
    <g id="Page-1" stroke="none" stroke-width="1" fill="none" fill-rule="evenodd">
        <g id="Custom-Solutions">
            <g id="ic_custom_solutions">
                <g>
                    <g id="lightbulb" transform="translate(21.000000, 8.000000)">
                        <g id="bulb" opacity="0.5">
                            <mask id="mask-2" fill="white">
                                <use xlink:href="#path-1"></use>
                            </mask>
                            <use id="Mask" fill="#5FC3ED" xlink:href="#path-1"></use>
                            <rect id="Rectangle-60" fill="#37B5E9" mask="url(#mask-2)" x="-21" y="-8" width="48" height="96"></rect>
                        </g>
                        <g id="bottom" transform="translate(13.000000, 54.000000)">
                            <circle id="Oval-2" fill="#FCE3C4" cx="14" cy="17" r="9"></circle>
                            <rect id="Rectangle-16" fill="#F6A43B" x="0" y="0" width="28" height="6"></rect>
                            <rect id="Rectangle-16" fill="#F7B662" x="2" y="6" width="24" height="6"></rect>
                            <polygon id="Rectangle-16" fill="#F8BF76" points="4 12 24 12 24 18 4 18"></polygon>
                        </g>
                    </g>
                    <rect id="bounds" x="0" y="0" width="96" height="96"></rect>
                </g>
            </g>
        </g>
    </g>
</svg>